<?xml version="1.0" encoding="UTF-8" standalone="no"?>
<!-- Created with Inkscape (http://www.inkscape.org/) -->

<svg
   xmlns:dc="http://purl.org/dc/elements/1.1/"
   xmlns:cc="http://creativecommons.org/ns#"
   xmlns:rdf="http://www.w3.org/1999/02/22-rdf-syntax-ns#"
   xmlns:svg="http://www.w3.org/2000/svg"
   xmlns="http://www.w3.org/2000/svg"
   xmlns:sodipodi="http://sodipodi.sourceforge.net/DTD/sodipodi-0.dtd"
   xmlns:inkscape="http://www.inkscape.org/namespaces/inkscape"
   width="160.31964mm"
   height="151.13463mm"
   viewBox="0 0 160.31964 151.13463"
   version="1.1"
   id="svg8"
   inkscape:version="0.92.4 (5da689c313, 2019-01-14)"
   sodipodi:docname="maestra.svg">
  <defs
     id="defs2" />
  <sodipodi:namedview
     id="base"
     pagecolor="#ffffff"
     bordercolor="#666666"
     borderopacity="1.0"
     inkscape:pageopacity="0.0"
     inkscape:pageshadow="2"
     inkscape:zoom="1.6302609"
     inkscape:cx="449.18049"
     inkscape:cy="225.94126"
     inkscape:document-units="mm"
     inkscape:current-layer="layer1"
     showgrid="false"
     inkscape:window-width="3840"
     inkscape:window-height="2050"
     inkscape:window-x="-12"
     inkscape:window-y="-12"
     inkscape:window-maximized="1"
     fit-margin-top="0"
     fit-margin-left="0"
     fit-margin-right="0"
     fit-margin-bottom="0" />
  <metadata
     id="metadata5">
    <rdf:RDF>
      <cc:Work
         rdf:about="">
        <dc:format>image/svg+xml</dc:format>
        <dc:type
           rdf:resource="http://purl.org/dc/dcmitype/StillImage" />
        <dc:title></dc:title>
      </cc:Work>
    </rdf:RDF>
  </metadata>
  <g
     inkscape:label="Capa 1"
     inkscape:groupmode="layer"
     id="layer1"
     transform="translate(-26.157084,-17.662593)">
    <g
       id="g1521"
       transform="translate(-150.77213,-19.313115)">
      <rect
         y="36.975708"
         x="176.92921"
         height="150.65533"
         width="160.31964"
         id="rect1279"
         style="fill:#ffc61b;fill-opacity:1;stroke:none;stroke-width:0.31057316;stroke-linecap:round;stroke-linejoin:round;stroke-miterlimit:4;stroke-dasharray:none;stroke-dashoffset:0;stroke-opacity:1;paint-order:normal" />
      <path
         inkscape:connector-curvature="0"
         id="path1385"
         d="m 272.0107,66.562014 64.64885,52.904336 -0.1222,67.36409 -73.69236,0.11476 -0.73326,-121.875065 z"
         style="fill:#d48b07;fill-opacity:1;stroke:none;stroke-width:0.27303597px;stroke-linecap:butt;stroke-linejoin:miter;stroke-opacity:1" />
      <g
         transform="translate(63.909078,-8.9158788)"
         id="g1277-8-4">
        <g
           transform="translate(49.256552,15.255739)"
           id="g1027-7-9">
          <rect
             style="fill:#fcd088;fill-opacity:1;stroke:none;stroke-width:0.27069956;stroke-linecap:round;stroke-linejoin:round;stroke-miterlimit:4;stroke-dasharray:none;stroke-dashoffset:0;stroke-opacity:1;paint-order:normal"
             id="rect1008-8-2"
             width="11.685246"
             height="32.053276"
             x="133.24426"
             y="117.17705" />
          <rect
             style="fill:#ddab62;fill-opacity:1;stroke:none;stroke-width:0.277201;stroke-linecap:round;stroke-linejoin:round;stroke-miterlimit:4;stroke-dasharray:none;stroke-dashoffset:0;stroke-opacity:1;paint-order:normal"
             id="rect1008-3-1-9"
             width="12.25328"
             height="32.053276"
             x="144.92952"
             y="117.17705" />
        </g>
        <g
           transform="translate(123.26313,3.044903)"
           id="g1166-7-7">
          <g
             style="fill:#e8cf89;fill-opacity:1;stroke:none"
             transform="translate(-33.432787,14.52541)"
             id="g851-5-0-8">
            <path
               style="fill:#e8cf89;fill-opacity:1;stroke:none;stroke-width:0.26458332px;stroke-linecap:butt;stroke-linejoin:miter;stroke-opacity:1"
               d="m 84.718032,109.95492 c 0.946053,1.54955 1.867174,3.12749 3.00246,4.54426 1.315853,1.64211 2.796679,3.16048 4.381967,4.54426 1.035268,0.90368 2.164411,1.70184 3.327049,2.43443 1.402719,0.88386 2.818132,1.80258 4.381966,2.35327 1.531236,0.53921 3.164306,0.89206 4.787706,0.89263 1.92582,6.8e-4 3.87369,-0.38796 5.68033,-1.05492 2.08046,-0.76805 3.99053,-1.99214 5.76147,-3.32705 1.77199,-1.33571 3.37296,-2.91586 4.78771,-4.62541 1.19579,-1.44496 2.58432,-2.89865 3.08361,-4.70655 3.85557,-13.960932 9.07334,-33.829363 -1.78525,-43.41394 -7.06144,-6.232943 -19.97855,-2.316506 -28.158198,2.353278 -8.407956,4.800125 -11.693301,15.468196 -16.797541,23.695083 -0.421107,0.67873 -0.900468,1.346618 -1.136065,2.109835 -0.304851,0.987567 -0.383364,2.051732 -0.324591,3.083608 0.05672,0.995912 0.357726,1.967316 0.649179,2.921316 0.237751,0.77822 0.4851,1.5678 0.892624,2.27212 0.520442,0.89949 1.156248,1.7608 1.94754,2.43443 0.544154,0.46324 1.195065,0.80994 1.866395,1.05492 0.413648,0.15095 0.861233,0.29643 1.298361,0.24344 0.324461,-0.0393 0.892622,-0.40574 0.892622,-0.40574 0,0 0.943151,1.7491 1.460656,2.59673 z"
               id="path826-1-7-8"
               inkscape:connector-curvature="0"
               sodipodi:nodetypes="aaaaaaaaaaaaaaaaaaaaca" />
            <path
               style="fill:#e8cf89;fill-opacity:1;stroke:none;stroke-width:0.26458332px;stroke-linecap:butt;stroke-linejoin:miter;stroke-opacity:1"
               d="m 104.51803,65.567213 v 59.156557 0 0"
               id="path843-2-6-4"
               inkscape:connector-curvature="0" />
          </g>
          <path
             inkscape:connector-curvature="0"
             id="path853-7-4-1"
             d="M 71.230961,109.64057 V 80.179127 l 1.075203,-0.255829 c 1.294818,-0.30808 3.024963,-0.607403 4.239958,-0.733528 1.136092,-0.117935 3.75606,-0.117782 4.706559,2.65e-4 3.208296,0.398481 5.687082,1.505378 7.737856,3.455326 3.324654,3.161199 5.136984,7.223993 5.825832,13.060083 0.198797,1.68426 0.198903,6.031196 1.61e-4,8.155326 -0.53073,5.67341 -1.57049,10.83205 -3.957614,19.63521 -0.753586,2.77906 -0.97114,3.29204 -1.951606,4.60183 -1.769422,2.36374 -4.172357,4.8871 -6.036715,6.33925 -3.794371,2.95545 -7.07209,4.35035 -10.830639,4.60922 l -0.808995,0.0557 z"
             style="fill:#e8cf89;fill-opacity:1;stroke:none;stroke-width:0.08127533;stroke-linecap:round;stroke-linejoin:round;stroke-miterlimit:4;stroke-dasharray:none;stroke-dashoffset:0;stroke-opacity:1;paint-order:normal" />
          <path
             inkscape:connector-curvature="0"
             id="path859-7-4-3"
             d="m 69.519792,138.95589 c -1.612752,-0.22015 -3.468571,-0.81623 -4.861782,-1.56158 -0.861968,-0.46114 -2.808325,-1.66798 -3.773361,-2.33967 -3.01385,-2.09772 -6.110843,-5.33112 -8.076259,-8.43198 -0.787278,-1.2421 -1.773242,-2.89621 -2.377389,-3.98846 l -0.54538,-0.986 -0.424257,0.23391 c -0.241056,0.13291 -0.5493,0.23456 -0.713832,0.23539 -0.835742,0.004 -2.32812,-0.7311 -3.184134,-1.56893 -1.134321,-1.11022 -1.849027,-2.32962 -2.408897,-4.10993 -0.623607,-1.98298 -0.687575,-2.33794 -0.680003,-3.77336 0.01021,-1.93524 0.143418,-2.35165 1.416906,-4.42913 1.035696,-1.68956 1.936242,-3.32476 3.916985,-7.11239 2.516997,-4.813066 3.390834,-6.364036 4.741658,-8.415936 1.734669,-2.63495 3.694557,-4.87138 5.601933,-6.392372 1.882746,-1.501352 4.962937,-3.165406 8.412996,-4.545071 1.223705,-0.489355 4.017504,-1.442389 4.22833,-1.442389 0.09644,0 0.113064,4.317891 0.113064,29.375408 v 29.37541 l -0.304303,-0.008 c -0.167367,-0.005 -0.654391,-0.0562 -1.082275,-0.11456 z"
             style="fill:#ffedb5;fill-opacity:1;stroke:none;stroke-width:0.08127533;stroke-linecap:round;stroke-linejoin:round;stroke-miterlimit:4;stroke-dasharray:none;stroke-dashoffset:0;stroke-opacity:1;paint-order:normal" />
          <g
             transform="translate(-97.620487,-25.480328)"
             id="g896-2-1-9">
            <g
               id="g867-1-9-3-0"
               transform="translate(64.005632,41.056917)"
               style="fill:#494948;fill-opacity:1;stroke:none">
              <path
                 sodipodi:nodetypes="aaaaaaaacaaaaaaaaaaacaaaaaaaaaaacaaaaacaaaaaca"
                 inkscape:connector-curvature="0"
                 id="path861-7-8-9-2"
                 d="m 101.27213,80.336064 c 2.43024,1.059022 4.76697,2.352479 6.97869,3.813934 1.4944,0.987465 2.8808,2.137205 4.21967,3.327051 1.54406,1.372192 3.10711,2.756615 4.38197,4.381965 1.28834,1.642538 2.3064,3.491576 3.2459,5.355738 1.0919,2.166553 2.1093,4.397718 2.75901,6.735248 0.71099,2.55799 1.03188,5.22283 1.21722,7.87131 0.13786,1.96996 0.0396,3.95269 -0.0811,5.92377 -0.0915,1.49373 -0.48688,4.46312 -0.48688,4.46312 0,0 1.80937,-2.05024 2.59672,-3.16476 1.05726,-1.49659 1.93663,-3.11244 2.84016,-4.70656 0.9666,-1.70539 1.94732,-3.40912 2.75902,-5.19344 0.9714,-2.13539 1.82867,-4.3298 2.51557,-6.57295 0.59364,-1.93856 1.1185,-3.913214 1.37951,-5.923769 0.2369,-1.824827 0.22785,-3.679062 0.16229,-5.518034 -0.0959,-2.689787 -0.14573,-5.425746 -0.81147,-8.033606 -0.46475,-1.820511 -1.3544,-3.511067 -2.19098,-5.193443 -0.98743,-1.985746 -2.05641,-3.943871 -3.32705,-5.761474 -1.11121,-1.589548 -2.38138,-3.072015 -3.73279,-4.463116 -1.33514,-1.374358 -2.74892,-2.690075 -4.30082,-3.813935 -1.21741,-0.881628 -3.89508,-2.27213 -3.89508,-2.27213 0,0 0.6436,-0.759383 0.81147,-1.217213 0.24371,-0.664674 0.34221,-1.408813 0.24345,-2.109835 -0.14716,-1.044605 -0.6235,-2.049334 -1.21722,-2.921312 -0.6998,-1.027757 -1.62582,-1.934006 -2.67787,-2.596722 -1.78135,-1.122128 -3.86784,-1.737613 -5.92377,-2.190983 -1.32495,-0.292175 -2.70098,-0.357176 -4.05737,-0.32459 -1.90848,0.04585 -3.83905,0.226248 -5.680331,0.730326 -2.045133,0.559887 -4.147229,1.242124 -5.842624,2.515574 -0.952601,0.71552 -1.758228,1.684158 -2.272131,2.759017 -0.405017,0.847118 -0.675477,1.826224 -0.568031,2.759017 0.08863,0.769482 0.496283,1.499945 0.97377,2.109835 0.213539,0.272751 0.811474,0.649181 0.811474,0.649181 0,0 -3.877979,2.00387 -5.599181,3.32705 -1.410308,1.084181 -2.714116,2.334635 -3.813932,3.732785 -1.634803,2.078256 -2.978735,4.402216 -4.057377,6.816394 -1.144685,2.561992 -1.993821,5.276456 -2.515574,8.033607 -0.499156,2.63774 -0.57633,5.349064 -0.568032,8.033605 0.0044,1.410706 0.324589,4.219673 0.324589,4.219673 0,0 0.782421,-1.61749 1.379509,-2.272131 0.61247,-0.671507 1.426226,-1.131841 2.190982,-1.622951 1.507681,-0.968201 3.227988,-1.58462 4.706557,-2.596722 1.774744,-1.214838 3.434516,-2.612469 4.950002,-4.138525 1.82788,-1.840629 3.476161,-3.870237 4.95,-6.004917 0.247807,-0.358919 0.649179,-1.136065 0.649179,-1.136065 0,0 4.455707,1.268375 6.572901,2.190983 z"
                 style="fill:#494948;fill-opacity:1;stroke:none;stroke-width:0.26458332px;stroke-linecap:butt;stroke-linejoin:miter;stroke-opacity:1" />
              <path
                 inkscape:connector-curvature="0"
                 id="path863-0-1-1-9"
                 d="m 104.43688,81.877867 0.0811,-31.809835"
                 style="fill:#494948;fill-opacity:1;stroke:none;stroke-width:0.26458332px;stroke-linecap:butt;stroke-linejoin:miter;stroke-opacity:1" />
            </g>
            <path
               style="fill:#333333;fill-opacity:1;stroke:none;stroke-width:0.30718234;stroke-linecap:round;stroke-linejoin:round;stroke-miterlimit:4;stroke-dasharray:none;stroke-dashoffset:0;stroke-opacity:1;paint-order:normal"
               d="m 709.63967,614.68975 c 0,-0.19155 0.27198,-2.67198 0.6044,-5.51207 2.0944,-17.89376 1.86173,-32.51124 -0.77773,-48.86144 -2.05454,-12.72695 -5.27598,-22.14188 -12.59535,-36.81093 -8.87731,-17.7914 -13.9185,-24.3734 -28.57155,-37.3042 -10.63801,-9.38768 -16.28124,-13.49072 -27.13041,-19.72581 l -3.91041,-2.24734 1.4e-4,-24.11039 c 9e-5,-13.26071 0.092,-39.96724 0.20428,-59.34784 l 0.20413,-35.23745 4.93294,0.17662 c 5.61083,0.20088 8.51967,0.65533 15.05402,2.35193 10.62989,2.75998 17.82077,6.38546 22.92771,11.55963 3.14836,3.18981 4.85173,5.5082 6.50104,8.84832 1.71861,3.48046 2.31463,5.83434 2.31463,9.14125 0,3.4481 -0.74707,5.79286 -2.6973,8.46578 l -1.52659,2.09231 4.59271,2.50976 c 2.526,1.38037 5.82326,3.27094 7.32726,4.20128 10.53444,6.51634 25.48847,21.5383 34.2265,34.38199 4.68195,6.88182 10.39615,17.22684 15.23731,27.58571 5.29265,11.32497 6.7206,17.89713 7.55278,34.76171 0.4095,8.29873 0.40324,22.03659 -0.0119,26.06945 -1.55595,15.11594 -8.45141,36.8902 -17.23974,54.43914 -3.95213,7.8918 -13.72869,25.02994 -17.43051,30.5554 -3.08412,4.60342 -9.78839,12.83427 -9.78839,12.01719 z"
               id="path890-6-2-1"
               inkscape:connector-curvature="0"
               transform="scale(0.26458333)" />
          </g>
          <g
             transform="translate(-33.513934,14.768853)"
             id="g985-5-4-6">
            <g
               id="g974-6-1-0">
              <path
                 inkscape:connector-curvature="0"
                 id="path900-4-4-7-9"
                 d="m 115.95983,91.047498 a 7.4655745,7.4655745 0 0 0 -7.46569,7.46569 7.4655745,7.4655745 0 0 0 7.46569,7.465692 7.4655745,7.4655745 0 0 0 7.4657,-7.465692 7.4655745,7.4655745 0 0 0 -7.4657,-7.46569 z m -0.0403,2.35334 a 4.9905747,4.9905747 0 0 1 4.9904,4.99039 4.9905747,4.9905747 0 0 1 -4.9904,4.990912 4.9905747,4.9905747 0 0 1 -4.99091,-4.990912 4.9905747,4.9905747 0 0 1 4.99091,-4.99039 z"
                 style="fill:#333333;fill-opacity:1;stroke:none;stroke-width:0.31057322;stroke-linecap:round;stroke-linejoin:round;stroke-miterlimit:4;stroke-dasharray:none;stroke-dashoffset:0;stroke-opacity:1;paint-order:normal" />
              <path
                 inkscape:connector-curvature="0"
                 id="path900-4-8-0-5-4"
                 d="m 93.481961,91.209713 a 7.4655746,7.4655746 0 0 0 -7.46569,7.46569 7.4655746,7.4655746 0 0 0 7.46569,7.465697 7.4655746,7.4655746 0 0 0 7.465689,-7.465697 7.4655746,7.4655746 0 0 0 -7.465689,-7.46569 z m -0.0403,2.35334 a 4.9905748,4.9905748 0 0 1 4.9904,4.99039 4.9905748,4.9905748 0 0 1 -4.9904,4.990917 4.9905748,4.9905748 0 0 1 -4.99091,-4.990917 4.9905748,4.9905748 0 0 1 4.99091,-4.99039 z"
                 style="fill:#444444;fill-opacity:1;stroke:none;stroke-width:0.31057322;stroke-linecap:round;stroke-linejoin:round;stroke-miterlimit:4;stroke-dasharray:none;stroke-dashoffset:0;stroke-opacity:1;paint-order:normal" />
              <g
                 id="g967-6-5-7">
                <rect
                   style="fill:#333333;fill-opacity:1;stroke:none;stroke-width:0.28015488;stroke-linecap:round;stroke-linejoin:round;stroke-miterlimit:4;stroke-dasharray:none;stroke-dashoffset:0;stroke-opacity:1;paint-order:normal"
                   id="rect948-21-0-8"
                   width="4.6254096"
                   height="2.2721312"
                   x="104.43688"
                   y="96.727867" />
                <rect
                   style="fill:#444444;fill-opacity:1;stroke:none;stroke-width:0.28015488;stroke-linecap:round;stroke-linejoin:round;stroke-miterlimit:4;stroke-dasharray:none;stroke-dashoffset:0;stroke-opacity:1;paint-order:normal"
                   id="rect948-2-3-0-3"
                   width="4.6254096"
                   height="2.2721312"
                   x="99.81147"
                   y="96.727867" />
              </g>
            </g>
            <path
               style="fill:#494948;fill-opacity:1;stroke:none;stroke-width:0.26458332px;stroke-linecap:butt;stroke-linejoin:miter;stroke-opacity:1"
               d="m 79.118851,89.424588 0.730329,2.840165 6.735246,6.491803 0.892623,-2.434426 -0.892623,-0.730329 -5.436885,-5.193443 -2.596722,-1.622949 z"
               id="path976-3-0-7"
               inkscape:connector-curvature="0" />
          </g>
        </g>
        <g
           id="g1210-2-4"
           transform="translate(89.586876,17.852446)">
          <path
             style="fill:#ff6262;fill-opacity:1;stroke:none;stroke-width:0.26458332px;stroke-linecap:butt;stroke-linejoin:miter;stroke-opacity:1"
             d="m 104.59918,179.17377 v -34.56885 l 17.60901,-9.08853 c 0,0 8.18822,1.20597 12.09099,2.51557 1.6174,0.54273 3.23803,1.19815 4.62541,2.19099 1.07335,0.76811 1.97751,1.77652 2.75901,2.84016 0.8743,1.18994 1.5793,2.51709 2.10984,3.89508 0.37008,0.96122 0.60533,1.98007 0.73033,3.00246 0.69595,5.6921 0.0676,11.46881 0.0811,17.20328 0.008,3.35409 0,10.0623 0,10.0623 z"
             id="path1168-1-0"
             inkscape:connector-curvature="0"
             sodipodi:nodetypes="cccaaaaaacc" />
          <path
             style="fill:#ffad9e;fill-opacity:1;stroke:none;stroke-width:0.26458332px;stroke-linecap:butt;stroke-linejoin:miter;stroke-opacity:1"
             d="m 104.59918,179.17377 v -34.56885 l -17.60901,-9.08853 c 0,0 -8.18822,1.20597 -12.09099,2.51557 -1.6174,0.54273 -3.23803,1.19815 -4.62541,2.19099 -1.07335,0.76811 -1.97751,1.77652 -2.75901,2.84016 -0.8743,1.18994 -1.5793,2.51709 -2.10984,3.89508 -0.37008,0.96122 -0.60533,1.98007 -0.73033,3.00246 -0.69595,5.6921 -0.0676,11.46881 -0.0811,17.20328 -0.008,3.35409 0,10.0623 0,10.0623 z"
             id="path1168-5-2-4"
             inkscape:connector-curvature="0"
             sodipodi:nodetypes="cccaaaaaacc" />
        </g>
        <path
           style="fill:#e0e0e0;fill-opacity:1;stroke:none;stroke-width:0.26458332px;stroke-linecap:butt;stroke-linejoin:miter;stroke-opacity:1"
           d="m 199.86639,155.47868 c 1.74699,-2.17837 3.33746,-4.48666 5.19344,-6.57295 0.33053,-0.37155 0.58231,-0.9002 1.05492,-1.05492 0.33812,-0.11069 0.73756,0.001 1.05491,0.1623 0.47771,0.24208 0.76938,0.74574 1.13607,1.13606 1.25967,1.34085 3.65164,4.13852 3.65164,4.13852 l -9.33197,14.93115 c 0,0 -0.65342,0.9432 -1.13606,1.21722 -0.29584,0.16796 -0.65981,0.25644 -0.99754,0.21559 -0.46924,-0.0568 -0.97097,-0.25909 -1.27459,-0.62133 -1.84891,-2.20582 -5.03115,-6.57295 -5.03115,-6.57295 0,0 3.8038,-4.63879 5.68033,-6.97869 z"
           id="path1214-4-9"
           inkscape:connector-curvature="0"
           sodipodi:nodetypes="aaaaaccaasca" />
        <path
           style="fill:#ffffff;fill-opacity:1;stroke:none;stroke-width:0.26458332px;stroke-linecap:butt;stroke-linejoin:miter;stroke-opacity:1"
           d="m 188.50573,155.47868 c -1.74699,-2.17837 -3.33746,-4.48666 -5.19344,-6.57295 -0.33053,-0.37155 -0.58231,-0.9002 -1.05492,-1.05492 -0.33812,-0.11069 -0.73756,0.001 -1.05491,0.1623 -0.47771,0.24208 -0.76938,0.74574 -1.13607,1.13606 -1.25967,1.34085 -3.65164,4.13852 -3.65164,4.13852 l 9.33197,14.93115 c 0,0 0.65342,0.9432 1.13606,1.21722 0.29584,0.16796 0.65981,0.25644 0.99754,0.21559 0.46924,-0.0568 0.97097,-0.25909 1.27459,-0.62133 1.84891,-2.20582 5.03115,-6.57295 5.03115,-6.57295 0,0 -3.8038,-4.63879 -5.68033,-6.97869 z"
           id="path1214-3-5-7"
           inkscape:connector-curvature="0"
           sodipodi:nodetypes="aaaaaccaasca" />
        <ellipse
           style="fill:#ffffff;fill-opacity:1;stroke:none;stroke-width:0.26499999;stroke-linecap:round;stroke-linejoin:round;stroke-miterlimit:4;stroke-dasharray:none;stroke-dashoffset:0;stroke-opacity:1;paint-order:normal"
           id="path1231-0-6"
           cx="194.25992"
           cy="172.88712"
           rx="1.2336694"
           ry="1.2049794" />
        <ellipse
           style="fill:#ffffff;fill-opacity:1;stroke:none;stroke-width:0.26499999;stroke-linecap:round;stroke-linejoin:round;stroke-miterlimit:4;stroke-dasharray:none;stroke-dashoffset:0;stroke-opacity:1;paint-order:normal"
           id="path1231-4-7-7"
           cx="194.23123"
           cy="168.00981"
           rx="1.2336695"
           ry="1.2049794" />
      </g>
    </g>
  </g>
</svg>
