<svg viewBox="0 0 150 150" width="150" height="150" xmlns="http://www.w3.org/2000/svg" >
    <path d="M 40 60
           a 40 40 0 1 1 80 1
           M 50 60
           a 10 10 0 1 1 60 1
           M 65 23
           a 10 10 0 1 1 30 1
           M 50 75
           l 60 1
           v 43
           h -60
           z
           M 50 85
           l 59 1
           M 56 85
           l 0 10
           M 120 90
           a 10 10 1 0 1 0 30
           M 39 90
           a 10 10 1 0 0 0 30"
          stroke="black"
          fill="none"
          stroke-width="4"/>
    <polyline points="40 60 40 130 120 130 120 60"
              fill="none"
              stroke="black"
              stroke-width="4"/>
</svg>
